<svg version="1.1" xmlns="http://www.w3.org/2000/svg" style="display: block;" viewBox="559.63916015625 560.8020629882812 928.2337646484375 910.1179809570312" width="1024" height="1024" preserveAspectRatio="none">
<path transform="translate(0,0)" fill="rgb(71,77,237)" d="M 1486.89 1241.53 C 1489.37 1308.51 1475.15 1368.43 1425.79 1415.91 C 1415.97 1425.36 1405.79 1434.54 1393.82 1441.16 C 1363.51 1457.94 1324.04 1469.76 1289.52 1469.97 C 1172.08 1470.72 1054.71 1470.86 937.297 1470.92 L 823.156 1470.79 C 783.173 1470.57 749.897 1472.2 710.445 1463.48 C 675.242 1455.78 642.891 1438.4 617.036 1413.3 C 586.949 1383.72 568.854 1344.06 562.498 1302.46 C 560.167 1287.21 560.26 1268.24 560.152 1252.63 L 559.866 923.223 L 559.849 818.973 C 559.848 780.617 557.811 748.778 566.45 710.983 C 586.528 623.138 660.307 569.162 747.889 562.372 C 774.007 560.348 800.692 561.118 826.929 561.133 L 930.282 561.333 C 1036.82 561.057 1146.13 560.266 1252.53 561.379 C 1319.02 560.452 1379.71 572.041 1428.75 620.659 C 1458.86 650.506 1478.12 690.57 1484.53 732.51 C 1486.87 747.872 1486.75 768.651 1486.87 784.494 C 1486.85 817.281 1487.05 850.069 1487.47 882.854 C 1487.93 961.98 1488 1041.11 1487.66 1120.24 L 1487.38 1201.65 C 1487.31 1212.79 1487.76 1230.87 1486.89 1241.53 z"/>
<path transform="translate(0,0)" fill="rgb(152,88,235)" d="M 930.282 561.333 C 1036.82 561.057 1146.13 560.266 1252.53 561.379 C 1319.02 560.452 1379.71 572.041 1428.75 620.659 C 1458.86 650.506 1478.12 690.57 1484.53 732.51 C 1486.87 747.872 1486.75 768.651 1486.87 784.494 C 1486.85 817.281 1487.05 850.069 1487.47 882.854 C 1487.93 961.98 1488 1041.11 1487.66 1120.24 L 1487.38 1201.65 C 1487.31 1212.79 1487.76 1230.87 1486.89 1241.53 C 1483.13 1238.76 1487.85 1209.83 1483.7 1203.79 C 1480.24 1205.33 1473.24 1213.82 1470.04 1216.84 C 1465.26 1224.04 1458.17 1217.06 1455.92 1217.88 C 1443.04 1222.61 1428.36 1219.66 1415.3 1219.27 C 1405.9 1208.72 1387.36 1209.13 1377.13 1194.96 C 1373.5 1189.94 1352.23 1180.67 1344.64 1175.62 L 1343.31 1174.73 C 1341.53 1176.22 1341.52 1176.45 1340.28 1178.43 C 1337.11 1172.65 1330.19 1171.62 1322.6 1164.2 C 1312.88 1154.69 1309.88 1143.45 1300.79 1135.99 C 1300.35 1151.94 1300.97 1167.49 1298.15 1183.22 L 1296.44 1183.76 C 1286.31 1230.59 1251.92 1239.98 1209.01 1237.35 C 1194.62 1236.47 1195.87 1231.17 1195.42 1219.81 C 1194.52 1199.62 1194.39 1196.77 1215.56 1197.68 C 1236.88 1198.59 1250.23 1192.59 1252.04 1169.55 C 1250.5 1157.37 1251.05 1102.2 1249.34 1096.45 C 1247.74 1099.68 1243.37 1102.29 1240.67 1100.24 C 1230.75 1092.72 1211.37 1072.53 1206.12 1061.95 L 1207.11 1060.14 L 1205.97 1057.98 C 1203.6 1056.82 1201.73 1056.32 1200.62 1054.04 L 1202.57 1050.67 C 1196.04 1052.14 1193.23 1074.83 1181.94 1075.28 C 1153.8 1096.11 1130.26 1092.33 1097.11 1092.79 C 1088.37 1092.91 1077 1094.07 1069.23 1089.96 C 1067.15 1087.65 1066.73 1083.21 1066.67 1080.12 C 1065.77 1030.34 1067.25 980.267 1066.04 930.484 L 1064.65 928.986 C 1064.5 924.541 1063.64 914.914 1066.33 911.8 C 1069.09 911.156 1069.6 911.408 1071.43 909.409 L 1068.9 906.839 C 1068.57 904.041 1068.31 904.158 1066.45 901.93 C 1064.42 901.715 1064.29 901.005 1062.25 899.415 L 1059.18 900.81 C 1052.78 900.936 1040.79 887.864 1039.39 881.657 C 1038.49 877.687 1031.88 874.406 1029.28 870.728 C 1027.05 867.577 1027.23 864.87 1024.52 862.541 L 1021.93 863.736 C 1015.1 846.424 1005.67 837.186 993.552 823.562 C 990.669 822.715 991.146 823.049 988.634 821.583 C 988.856 818.551 988.974 819.246 988.484 816.322 L 986.593 817.156 C 982.574 816.481 974.473 803.624 970.876 799.239 C 959.068 795.195 961.685 788.747 953.258 780.107 C 951.188 777.985 944.019 775.446 941.922 773.109 C 927.203 756.697 916.959 749.353 906.179 730.164 L 906.082 730.635 C 901.957 724.698 893.362 704.577 889.178 702.447 L 887.832 703.772 C 881.774 700.685 881.745 690.963 869.375 687.268 C 868.601 687.037 834.979 652.578 834.415 651.752 C 823.529 635.818 816.49 621.443 801.879 608.697 L 798.931 609.344 C 786.803 601.284 780.255 582.82 775.222 577.931 L 771.985 578.404 C 773.61 576.26 773.901 576.326 774.117 573.726 C 772.136 568.929 768.484 570.503 767.061 566.374 C 777.216 558.278 906.223 564.546 930.282 561.333 z"/>
<path transform="translate(0,0)" fill="rgb(205,112,211)" d="M 1252.53 561.379 C 1319.02 560.452 1379.71 572.041 1428.75 620.659 C 1458.86 650.506 1478.12 690.57 1484.53 732.51 C 1486.87 747.872 1486.75 768.651 1486.87 784.494 C 1486.85 817.281 1487.05 850.069 1487.47 882.854 L 1486.28 886.97 C 1485.12 884.084 1484.93 814.256 1484.54 804.478 C 1482.87 805.708 1476.46 806.228 1474.91 805.735 C 1466.62 802.718 1458.03 796.909 1450.23 792.455 C 1447.91 791.135 1443.4 783.063 1441.31 782.025 C 1428.82 775.84 1417.83 767.477 1407.65 758.009 C 1400.25 751.114 1393.99 742.712 1386.36 736.076 C 1380.46 731.148 1365.08 728.691 1357.98 723.819 C 1348.68 717.43 1341.78 706.758 1334.27 699.698 C 1330.22 695.893 1311.96 689.301 1306.41 686.033 C 1305.24 685.405 1299.83 676.971 1299.76 676.967 C 1285.92 676.288 1277.8 662.07 1268.53 653.38 C 1268.42 653.271 1263.38 651.888 1263.25 651.72 C 1256.22 642.692 1249.44 633.234 1241.43 625.048 C 1231.05 617.377 1226.91 615.156 1217.31 605.685 C 1203.74 592.287 1204.29 580.802 1192.53 567.352 C 1191.46 566.123 1189.24 563.746 1187.71 563.662 C 1163.26 562.312 1132.84 563.356 1108.73 562.782 C 1119.66 561.974 1135.14 562.375 1146.35 562.342 L 1214.38 562.151 C 1226.11 562.12 1241.21 562.876 1252.53 561.379 z"/>
<path transform="translate(0,0)" fill="rgb(254,254,254)" d="M 1296.51 1002.48 C 1278.36 995.113 1263.4 983.728 1258.05 964.335 C 1246.08 920.867 1258.88 872.151 1249.97 828.307 C 1248.81 822.599 1241.81 816.001 1236.4 814.344 C 1225.53 808.34 1201.33 815.389 1196.42 807.722 C 1194.31 804.424 1195.07 780.901 1196.55 776.561 C 1203.65 770.88 1230.6 771.431 1239.78 772.656 C 1297.1 780.305 1298.2 823.912 1298.08 868.262 L 1297.98 910.902 C 1297.96 925.063 1297.64 939.925 1302.81 953.36 C 1313.28 980.553 1341.73 979.11 1345.1 985.944 C 1348.23 992.262 1346.6 1012.15 1346.11 1019.72 C 1328.87 1029.15 1307.62 1030.31 1301.93 1054.46 C 1293.69 1089.46 1299.97 1128.52 1297.77 1164.41 C 1297.37 1170.98 1296.8 1177.31 1296.44 1183.76 C 1286.31 1230.59 1251.92 1239.98 1209.01 1237.35 C 1194.62 1236.47 1195.87 1231.17 1195.42 1219.81 C 1194.52 1199.62 1194.39 1196.77 1215.56 1197.68 C 1236.88 1198.59 1250.23 1192.59 1252.04 1169.55 C 1253.71 1162.08 1253.23 1149.25 1253.2 1141.35 L 1252.99 1095.83 C 1252.82 1053.24 1252.25 1021.48 1296.51 1002.48 z"/>
<path transform="translate(0,0)" fill="rgb(254,254,254)" d="M 1066.04 930.484 C 1066.27 926.092 1065.3 916.297 1068.88 913.172 C 1074.82 907.978 1135.13 910.576 1145.33 912.155 C 1163.08 914.902 1179.83 922.786 1190.63 937.565 C 1207 959.972 1206.62 1006.95 1202.23 1033.25 C 1200.13 1045.82 1196.96 1056.64 1189.08 1066.78 C 1187.09 1069.33 1183.26 1072.6 1181.94 1075.28 C 1153.8 1096.11 1130.26 1092.33 1097.11 1092.79 C 1088.37 1092.91 1077 1094.07 1069.23 1089.96 C 1067.15 1087.65 1066.73 1083.21 1066.67 1080.12 C 1065.77 1030.34 1067.25 980.267 1066.04 930.484 z"/>
<path transform="translate(0,0)" fill="rgb(71,77,237)" d="M 1108.81 948.752 C 1143.88 947.909 1161.1 949.335 1160.61 991.633 C 1160.41 1009.28 1162.47 1030.38 1151.61 1045.62 C 1138.39 1057.01 1125.45 1055.08 1108.95 1054.83 L 1108.81 948.752 z"/>
<path transform="translate(0,0)" fill="rgb(254,254,254)" d="M 811.086 772.372 C 819.374 771.303 846.7 771.08 852.182 777.216 C 853.556 783.095 855.144 800.393 852.158 805.981 C 846.2 817.127 824.351 808.104 811.861 814.278 C 806.125 815.977 799.296 823.177 798.202 829.143 C 790.368 871.897 801.465 918.325 791.681 961.02 C 786.704 982.74 771.773 994.511 751.923 1002.32 C 798.776 1022.05 796.166 1057.81 795.873 1102.06 L 795.566 1146 C 795.48 1159.15 794.7 1174.68 801.061 1185.61 C 810.839 1203 833.195 1195.66 848.241 1198.6 C 855.953 1200.11 854.242 1228.03 851.287 1233.48 C 849.999 1235.85 846.92 1235.86 844.758 1236.27 C 810.998 1239.62 775.806 1238.06 758.514 1203.37 C 749.553 1185.39 750.95 1165.06 750.998 1145.52 L 751.146 1094.96 C 751.194 1067.29 750.047 1037.04 719.136 1026.33 C 713.744 1024.46 708.379 1023.11 703.114 1020.9 L 702.181 1020.5 C 701.849 1011.39 699.465 996.282 702.454 987.903 C 705.705 978.792 736.199 979.616 745.754 954.095 C 762.38 909.686 735.32 833.545 764.638 796.086 C 776.483 780.952 792.474 774.593 811.086 772.372 z"/>
<path transform="translate(0,0)" fill="rgb(254,254,254)" d="M 867.808 911.132 C 877.997 910.87 899.098 909.335 907.898 912.487 C 914.205 919.149 944.848 995.173 949.084 1005.77 C 959.117 975.871 973.076 943.223 986.527 914.701 C 989.15 909.137 1025.25 908.833 1031.58 914.446 C 1033.95 923.821 1033.81 1073.72 1031.85 1088.36 C 1030.2 1090.27 1028.9 1091.36 1026.43 1092.06 C 1020.49 1093.73 998.92 1094.4 994.071 1090.67 C 989.391 1087.08 991.589 1041.22 991.662 1032.5 C 991.747 1014.46 991.58 997.295 993.267 979.308 C 985.372 996.805 969.952 1042.24 960.701 1055.97 C 952.529 1056.21 944.646 1056.01 936.486 1055.84 C 927.025 1041.04 908.373 993.542 901.773 976.415 C 904.027 988.989 907.264 1081.02 903.34 1088.3 C 902.197 1090.42 900.386 1091.96 897.967 1092.33 C 889.251 1093.67 872.224 1094.45 865.023 1089.42 C 863.861 1086.76 863.714 1084.21 863.717 1081.31 C 863.765 1026.59 863.14 971.797 863.936 917.097 C 863.974 914.49 866.119 912.982 867.808 911.132 z"/>
</svg>